# xmcd
#
# Track frame offsets:
#	150
#	18054
#	35693
#	55628
#	71057
#	90653
#	106178
#	124180
#	143453
#	162728
#	176327
#
# Disc length: 2556 seconds
#
# Revision: 1
# Processed by: cddbd v1.5.2PL0 Copyright (c) Steve Scherf et al.
# Submitted via: audiograbber 1.83.01
#
DISCID=8909fa0b
DTITLE=Rick Trevino - Whole Town Blue
DYEAR=2007
DGENRE=Country
TTITLE0=Better In Texas
TTITLE1=Seperate Ways
TTITLE2=Whole Town Blue
TTITLE3=Fool For Lesser Things
TTITLE4=Cousin Paul
TTITLE5=Loving You Makes Me A Better Man
TTITLE6=Because Of You
TTITLE7=Autumn Rose
TTITLE8=Remember The Alimony
TTITLE9=Overnight Success
TTITLE10=Matter Much
EXTD=
EXTT0=
EXTT1=
EXTT2=
EXTT3=
EXTT4=
EXTT5=
EXTT6=
EXTT7=
EXTT8=
EXTT9=
EXTT10=
PLAYORDER=
